<?xml version="1.0" encoding="UTF-8"?><svg id="Layer_2" xmlns="http://www.w3.org/2000/svg" viewBox="0 0 1308.14 484.67" width="1308.14" height="484.67"><g id="Layer_1-2"><path d="M63.15,462.73l-.61.44-15.23.25-.34-.51,2.75-11.7,4.47-18.5c3.02-13.17,3.87-17.31,6.37-29.69l.51-.51,15.32-.25.34.5c-3.79,14.81-4.65,18.34-8.17,33.99l-2.58,12.15-2.84,13.84Z" style="fill:#fff;"/><path d="M115.01,462.73l-.61.52h-22.2l-16.18.26-.43-.52,4.22-17.29,3.27-13.86c3.19-14.11,3.7-16.78,6.11-28.82l.6-.51h22.55l14.54-.25.52.5-2.84,9.81-.61.52h-21.68l-3.18,13.78h9.64l11.53-.26.43.68-2.75,9.3-.69.42h-20.3l-1.29,5.51-2.24,9.55h10.33l14.02-.34.43.52-3.18,10.5Z" style="fill:#fff;"/><path d="M165.12,462.73l-.61.52h-22.2l-16.18.26-.43-.52,4.22-17.29,3.27-13.86c3.19-14.11,3.7-16.78,6.11-28.82l.6-.51h22.55l14.54-.25.52.5-2.84,9.81-.61.52h-21.68l-3.18,13.78h9.64l11.53-.26.43.68-2.75,9.3-.69.42h-20.3l-1.29,5.51-2.24,9.55h10.33l14.02-.34.43.52-3.18,10.5Z" style="fill:#fff;"/><path d="M215.23,462.73l-.61.52h-22.2l-16.18.26-.43-.52,4.21-17.29,3.27-13.86c3.18-14.11,3.69-16.78,6.11-28.82l.6-.51h22.55l14.54-.25.52.5-2.84,9.81-.61.52h-21.68l-3.18,13.78h9.64l11.53-.26.44.68-2.75,9.3-.69.42h-20.3l-1.29,5.51-2.24,9.55h10.32l14.03-.34.43.52-3.18,10.5Z" style="fill:#fff;"/><path d="M295.35,460.84l-.52.7c-.86.34-1.63.76-2.58,1.11-2.23.87-6.8,1.9-11.78,1.9-6.8,0-15.06-1.55-20.9-8.09-4.22-4.82-5.77-11.35-5.77-18.23,0-18.41,11.79-37,34.59-37,2.58,0,5.24.25,7.91.78,4.91.95,6.97,2.06,9.81,3.69l.26.7-3.27,11.11-.68.16c-.78-.69-1.55-1.37-2.33-1.98-2.32-1.56-6.02-2.66-9.89-2.66-14.54,0-20.91,14.62-20.91,24.42s5.51,15.58,14.96,15.58c1.98,0,3.87-.36,5.85-.86,3.35-.95,5.07-2.08,7.74-3.87l.69.34-3.18,12.21Z" style="fill:#fff;"/><path d="M342.36,458.86c-4.91,4.05-10.5,5.42-17.04,5.42-4.47,0-10.49-.86-14.62-4.47-3.79-3.28-5.59-8-5.59-14.45,0-7.93,4.22-28.66,26.58-28.66,5.42,0,10.93,1.21,14.97,4.82,4.39,3.97,5.42,8.78,5.42,13.94,0,2.84-.44,5.77-1.12,8.62-1.38,5.66-4.04,11.09-8.6,14.79ZM337.71,433.48c0-3.19-1.03-7.65-6.1-7.65-4.04,0-6.11,2.41-7.05,3.52-3.27,4.21-5.08,14.04-5.08,17.99,0,2.06.26,3.19.51,3.78.95,2.75,3.27,4.12,6.11,4.12,2.58,0,4.81-1.54,6.28-3.35.95-1.21,2.84-3.45,4.48-11.09.43-2.16.86-4.66.86-7.33Z" style="fill:#fff;"/><path d="M421.73,462.73l-.61.44-14.02.34-.51-.6,3.61-15.06,1.46-6.21c.43-1.88,1.73-8,1.73-9.37,0-2.24-1.12-4.65-4.39-4.65s-5.51,1.8-6.97,2.85c-.51,4.21-.68,5.24-1.63,9.72l-1.89,8.34-2.84,14.2-.61.44-13.85.34-.43-.6,3.35-14.37,1.29-5.85c1.55-7.39,1.81-9.13,1.81-10.41,0-4.48-3.19-4.65-4.31-4.65-2.4,0-4.56,1.29-6.36,2.75l-2.92,13-3.96,19.35-.61.44-14.11.34-.43-.6,3.61-14.71,2.15-9.21c1.98-9.19,2.24-10.93,3.53-19.52l.6-.53c6.11-.86,7.83-1.11,14.46-2.4l.51.59-1.12,5.17c1.29-1.03,2.58-1.98,3.96-2.83,2.84-1.63,6.8-2.76,9.89-2.76,4.56,0,7.75,1.99,9.29,6.11,4.47-3.44,9.72-6.11,15.4-6.11,4.13,0,11.79,1.72,11.79,11.2,0,2.74-.69,5.58-1.38,8.34l-1.81,8.18-3.69,18.33Z" style="fill:#fff;"/><path d="M498.74,462.73l-.61.44-14.02.34-.51-.6,3.61-15.06,1.46-6.21c.43-1.88,1.73-8,1.73-9.37,0-2.24-1.12-4.65-4.39-4.65s-5.51,1.8-6.97,2.85c-.51,4.21-.68,5.24-1.63,9.72l-1.89,8.34-2.84,14.2-.61.44-13.85.34-.43-.6,3.35-14.37,1.29-5.85c1.55-7.39,1.81-9.13,1.81-10.41,0-4.48-3.19-4.65-4.31-4.65-2.4,0-4.56,1.29-6.36,2.75l-2.92,13-3.96,19.35-.61.44-14.11.34-.43-.6,3.61-14.71,2.15-9.21c1.98-9.19,2.24-10.93,3.53-19.52l.6-.53c6.11-.86,7.83-1.11,14.45-2.4l.52.59-1.12,5.17c1.29-1.03,2.58-1.98,3.96-2.83,2.84-1.63,6.8-2.76,9.89-2.76,4.56,0,7.75,1.99,9.29,6.11,4.47-3.44,9.72-6.11,15.4-6.11,4.13,0,11.79,1.72,11.79,11.2,0,2.74-.69,5.58-1.38,8.34l-1.81,8.18-3.7,18.33Z" style="fill:#fff;"/><path d="M550.46,462.64l-.6.53-13.42.34-.43-.6,1.03-4.3c-3.87,3.69-9.03,5.59-13.59,5.59-4.91,0-11.88-2.32-11.88-11.62,0-4.04,1.03-8.09,2.07-12.13l1.98-8.52c1.46-6.1,1.72-7.56,2.75-13.33l.6-.52,13.68-.68.43.68c-.78,3.36-1.55,6.63-2.41,9.97-.61,2.76-1.29,5.51-1.98,8.27-.77,3.1-2.23,9.2-2.23,12.12,0,3.19,2.15,4.91,4.81,4.91,3.44,0,5.76-1.72,7.57-3.01l3.61-16.69,3.02-15.06.68-.52,13.85-.68.43.68-5.42,22.88-1.9,8.62-2.67,13.07Z" style="fill:#fff;"/><path d="M602.64,462.73l-.6.44-14.02.25-.43-.51,3.44-14.54,1.89-8.85c.35-1.73,1.03-5.16,1.03-7.06,0-3.11-2.23-4.82-4.64-4.82-2.58,0-4.74,1.21-6.88,2.66-3.27,15.07-4.22,19.63-6.71,32.35l-.61.53-14.19.34-.34-.6,3.52-14.89,1.38-5.85c2.33-10.75,2.75-13.17,4.04-22.63l.69-.68c6.54-.87,7.75-1.03,14.36-2.41l.61.59-1.12,4.74c3.01-2.16,7.14-5.16,13.51-5.16,5.33,0,11.61,2.58,11.61,11.28,0,3.87-1.8,11.96-3.27,18.06l-1.12,5.94-2.15,10.84Z" style="fill:#fff;"/><path d="M630.81,447.68c-1.55,7.31-1.81,9.12-2.75,15.06l-.6.44-14.89.34-.43-.6c2.58-10.07,3.1-12.04,5.59-23.05l.94-4.22c1.64-7.4,1.98-9.3,2.93-16.1l.6-.61c7.23-.95,8.86-1.2,15.14-2.4l.51.59c-2.06,8.35-2.84,11.53-5.68,24.17l-1.38,6.38ZM639.41,408.36l-.6.7-14.11,1.97-.52-.6,2.5-11.62.78-.61,14.19-1.9.51.61-2.75,11.45Z" style="fill:#fff;"/><path d="M675.01,451.02l-2.75,10.51-.51.59c-.86.34-1.63.7-2.5.95-1.98.68-5.42,1.2-8.6,1.2-12.22,0-20.22-7.48-20.22-20.47,0-12.04,8.17-27.11,26.67-27.11,2.24,0,4.39.26,6.63.7,3.45.68,4.82,1.63,6.8,2.83l.17.6-2.92,9.8-.86.26c-.51-.68-1.03-1.29-1.55-1.8-1.72-1.54-4.56-2.32-6.97-2.32-8.09,0-13.16,8.26-13.16,16.16,0,8.43,5.34,11.1,9.72,11.1,4.9,0,7.82-2.32,9.2-3.44l.86.42Z" style="fill:#fff;"/><path d="M726.5,434.69c-3.27,13.94-3.87,17.03-5.59,28.05l-.61.44-12.99.34-.43-.52.61-3.78c-1.46,1.29-2.33,2.07-4.39,3.02-2.58,1.2-5.33,1.9-8.17,1.9-5.01,0-9.39-2.33-11.8-6.64-1.38-2.4-2.33-6.02-2.33-10.07,0-7.9,3.27-16.78,9.38-22.29,8.09-7.39,17.54-7.48,25.12-7.56h14.63l.5.68-3.95,16.44ZM714.39,427.11c-2.16-.09-4.4-.17-6.55.34-9.29,2.41-12.05,13.25-12.05,18.4,0,7.5,4.4,8.54,6.45,8.54,3.19,0,5.01-1.48,6.55-2.77l5.6-24.52Z" style="fill:#fff;"/><path d="M755.37,462.47l-.7.7c-2.74.5-4.81.95-7.73.95-7.4,0-13-2.33-13-10.08,0-3.61,1.63-10.06,2.84-14.89l2.84-11.79-6.03.18-.5-.68,2.48-8.7.61-.43h5.69l2.49-11.11.59-.61c6.45-1.45,8.18-1.88,14.12-3.61l.51.53-1.9,7.14-1.88,7.83,8.77-.17.34.59c-1.21,3.62-1.55,4.57-2.66,8.62l-.7.6-7.92-.18-3.61,15.07c-.51,1.88-1.63,6.7-1.63,8.17,0,2.75,2.24,3.53,4.04,3.53,2.23,0,3.44-.53,4.99-1.03l.51.42-2.58,8.94Z" style="fill:#fff;"/><path d="M779.44,447.68c-1.55,7.31-1.82,9.12-2.77,15.06l-.59.44-14.89.34-.44-.6c2.58-10.07,3.11-12.04,5.6-23.05l.94-4.22c1.65-7.4,1.99-9.3,2.94-16.1l.59-.61c7.23-.95,8.86-1.2,15.15-2.4l.51.59c-2.07,8.35-2.83,11.53-5.68,24.17l-1.37,6.38ZM788.02,408.36l-.59.7-14.11,1.97-.53-.6,2.5-11.62.78-.61,14.19-1.9.53.61-2.77,11.45Z" style="fill:#fff;"/><path d="M825.87,458.86c-4.91,4.05-10.5,5.42-17.03,5.42-4.48,0-10.5-.86-14.62-4.47-3.79-3.28-5.6-8-5.6-14.45,0-7.93,4.21-28.66,26.58-28.66,5.41,0,10.92,1.21,14.98,4.82,4.37,3.97,5.41,8.78,5.41,13.94,0,2.84-.43,5.77-1.12,8.62-1.37,5.66-4.04,11.09-8.6,14.79ZM821.22,433.48c0-3.19-1.03-7.65-6.11-7.65-4.03,0-6.11,2.41-7.05,3.52-3.28,4.21-5.07,14.04-5.07,17.99,0,2.06.25,3.19.5,3.78.95,2.75,3.28,4.12,6.11,4.12,2.58,0,4.82-1.54,6.28-3.35.95-1.21,2.85-3.45,4.48-11.09.43-2.16.86-4.66.86-7.33Z" style="fill:#fff;"/><path d="M880.18,462.73l-.59.44-14.03.25-.42-.51,3.44-14.54,1.88-8.85c.36-1.73,1.04-5.16,1.04-7.06,0-3.11-2.24-4.82-4.65-4.82-2.58,0-4.73,1.21-6.88,2.66-3.27,15.07-4.22,19.63-6.72,32.35l-.61.53-14.19.34-.34-.6,3.52-14.89,1.38-5.85c2.33-10.75,2.75-13.17,4.04-22.63l.68-.68c6.55-.87,7.75-1.03,14.37-2.41l.6.59-1.12,4.74c3-2.16,7.14-5.16,13.52-5.16,5.32,0,11.61,2.58,11.61,11.28,0,3.87-1.8,11.96-3.27,18.06l-1.12,5.94-2.16,10.84Z" style="fill:#fff;"/><path d="M889.43,459.3l2.67-9.22.78-.25c1.63,1.8,5.33,5.6,11.96,5.6s7.4-3.79,7.4-4.99c0-2.92-2.85-4.31-5.85-5.68l-1.9-.95c-4.56-2.32-8.96-4.99-8.96-11.79,0-2.15.78-15.48,19.71-15.48,4.82,0,9.55.95,14.62,3.44l.34.78c-1.37,4.46-1.63,5.24-2.58,9.19l-.84.18c-.79-.87-1.55-1.82-2.58-2.5-2.16-1.63-5.35-2.5-7.75-2.5-4.65,0-6.64,2.33-6.64,4.4,0,2.58,3.02,4.03,5.26,5.07l1.98.95c3.7,1.88,9.89,4.9,9.89,12.55,0,4.14-2.15,16.27-21.08,16.27-8.77,0-13.41-2.67-16.18-4.31l-.26-.76Z" style="fill:#fff;"/><path d="M957.18,458.69l2.92-10.84.86-.25c1.12,1.29,1.9,2.23,3.95,3.43,4.22,2.5,8.27,2.76,9.99,2.76,6.19,0,10.93-3.11,10.93-7.84,0-4.22-3.79-6.36-7.92-8.52l-2.85-1.54c-4.46-2.58-10.84-6.19-10.84-15.14,0-3.45,1.12-8.35,4.56-12.4,4.56-5.33,11.7-7.23,18.85-7.23,9.29,0,15.32,3.36,17.72,4.74l.34.6-3.19,10.75-.84.26c-1.04-1.29-1.55-1.72-2.92-2.67-2.92-1.99-6.38-3.1-9.91-3.1-5.51,0-9.04,3-9.04,6.97,0,3.7,2.85,5.51,8.18,8.34l2.07,1.03c4.48,2.58,11.53,6.64,11.53,15.75,0,10.33-7.57,20.73-25.46,20.73-4.4,0-8.7-.68-12.83-2.07-2.83-.93-4.22-1.8-5.93-2.92l-.17-.86Z" style="fill:#fff;"/><path d="M1044.29,458.86c-4.91,4.05-10.51,5.42-17.05,5.42-4.48,0-10.49-.86-14.62-4.47-3.79-3.28-5.58-8-5.58-14.45,0-7.93,4.22-28.66,26.58-28.66,5.41,0,10.92,1.21,14.96,4.82,4.39,3.97,5.43,8.78,5.43,13.94,0,2.84-.45,5.77-1.13,8.62-1.37,5.66-4.03,11.09-8.59,14.79ZM1039.63,433.48c0-3.19-1.03-7.65-6.1-7.65-4.04,0-6.11,2.41-7.05,3.52-3.28,4.21-5.08,14.04-5.08,17.99,0,2.06.26,3.19.51,3.78.95,2.75,3.28,4.12,6.11,4.12,2.58,0,4.81-1.54,6.29-3.35.95-1.21,2.83-3.45,4.48-11.09.42-2.16.84-4.66.84-7.33Z" style="fill:#fff;"/><path d="M1093.95,451.02l-2.74,10.51-.53.59c-.86.34-1.63.7-2.49.95-1.99.68-5.41,1.2-8.6,1.2-12.23,0-20.22-7.48-20.22-20.47,0-12.04,8.18-27.11,26.68-27.11,2.24,0,4.39.26,6.61.7,3.45.68,4.82,1.63,6.8,2.83l.18.6-2.92,9.8-.87.26c-.52-.68-1.03-1.29-1.56-1.8-1.71-1.54-4.56-2.32-6.96-2.32-8.09,0-13.17,8.26-13.17,16.16,0,8.43,5.35,11.1,9.72,11.1,4.9,0,7.82-2.32,9.21-3.44l.86.42Z" style="fill:#fff;"/><path d="M1116.03,447.68c-1.55,7.31-1.8,9.12-2.75,15.06l-.59.44-14.88.34-.44-.6c2.58-10.07,3.09-12.04,5.6-23.05l.94-4.22c1.65-7.4,1.99-9.3,2.92-16.1l.61-.61c7.23-.95,8.86-1.2,15.14-2.4l.53.59c-2.07,8.35-2.85,11.53-5.69,24.17l-1.37,6.38ZM1124.63,408.36l-.59.7-14.12,1.97-.52-.6,2.49-11.62.79-.61,14.19-1.9.52.61-2.75,11.45Z" style="fill:#fff;"/><path d="M1164.97,449.92c-.61,1.9-1.12,3.78-1.65,5.67-.5,1.74-.84,3.45-1.29,5.08l-.42.52c-2.15,1.12-6.19,3.09-14.71,3.09-12.13,0-16-4.56-17.55-6.46-3.19-3.87-3.96-8.17-3.96-12.72,0-12.65,7.82-28.4,25.82-28.4,3.95,0,8,.79,10.83,2.5,6.3,3.61,6.72,9.98,6.72,13.51,0,4.03-.76,7.3-1.46,10.14l-.68.44c-12.47-.09-16.27,0-27.19.25-.09.95-.17,1.82-.17,2.77,0,5.06,3.44,8,10.41,8,5.24,0,10.33-1.9,14.54-4.91l.78.52ZM1156.18,434.77c.26-1.29.53-2.58.53-3.87,0-2.84-1.73-5.68-5.85-5.68-1.48,0-3.7.36-6.11,2.68-2.41,2.24-3.27,4.9-3.95,7.05l15.39-.17Z" style="fill:#fff;"/><path d="M1195.81,462.47l-.68.7c-2.75.5-4.82.95-7.75.95-7.4,0-12.99-2.33-12.99-10.08,0-3.61,1.63-10.06,2.84-14.89l2.83-11.79-6.02.18-.51-.68,2.49-8.7.6-.43h5.68l2.49-11.11.6-.61c6.46-1.45,8.17-1.88,14.11-3.61l.51.53-1.88,7.14-1.9,7.83,8.77-.17.36.59c-1.21,3.62-1.56,4.57-2.67,8.62l-.7.6-7.9-.18-3.61,15.07c-.53,1.88-1.63,6.7-1.63,8.17,0,2.75,2.23,3.53,4.03,3.53,2.24,0,3.45-.53,4.99-1.03l.51.42-2.58,8.94Z" style="fill:#fff;"/><path d="M1250.77,418.17c-2.16,3.35-2.5,3.87-5.35,8.85-2.66,4.65-6.96,11.96-9.63,16.52l-7.31,12.74c-5.51,9.63-6.19,11.1-14.62,27.62l-.79.59-13.07.17-.34-.61c5.16-8,12.47-19.18,12.47-19.79l-1.72-13.5-1.98-14.98c-1.12-8.34-1.46-10.67-2.5-17.28l.53-.68c6.27-.09,8.09-.18,14.36-.61l.53.52.68,11.61,1.21,17.22,6.53-12.55c4.29-8.62,4.82-9.56,7.74-15.75l.68-.6,12.12-.25.45.78Z" style="fill:#fff;"/><path d="M166.67,300.05c-28.47,0-63.57-17.31-63.11-72.04.68-77.85,48.81-110.96,94.99-107.36-18.81-8.57-51.59-14.98-87.27-11.65-47.07,4.41-83.58,25.83-99.5,63.75C2.28,195.42,0,213.84,0,233.6c0,84.3,59.46,132.91,138.75,132.91,20.67,0,43-3.35,55.84-7.82,5.58-1.69,16.2-6.14,16.2-6.14,0,0,2.48-1.21,3.35-3.92.85-1.79,17.37-66.66,17.86-68.12.51-1.44-3.35-4.58-5.57-2.81-2.25,1.82-27.92,22.35-59.75,22.35Z" style="fill:#fff;"/><path d="M267.75,78.16c-1.96-1.2-21.79-13.96-44.12-18.44-14.54-2.78-28.5-4.44-43-4.44-50.2,0-88.65,17.06-116.44,42.65,5.7-1.93,11.58-3.59,17.62-4.92,54.43-12.05,108.55,4.08,147.15,38.62,1.86,1.25,11.5,10.77,14.63,14.85.22.3-.08-.02.76.89.84.95,5.04-.13,5.51-1.64.43-1.52,18.74-63.06,18.98-63.67.28-.58.42-2.72-1.1-3.89Z" style="fill:#fff;"/><path d="M676.92,354.08l-2.21,1.88-62.11,1.24-1.56-2.19,12.79-54.01,5-21.84c5.32-24.05,5.94-28.75,5.94-32.47,0-11.54-7.5-14.05-12.5-14.05-7.17,0-12.16,3.44-16.53,6.24l-5.62,32.17-6.24,28.4-11.24,54.63-2.19,1.88-61.5,1.24-1.56-2.19,11.86-50.9,4.99-21.52c1.56-8.43,3.43-16.55,5-24.98.63-3.12,1.56-7.8,1.56-11.86,0-12.81-9.99-13.11-11.86-13.11-7.8,0-12.19,3.44-15.62,6.24l-10.6,47.45-14.06,67.75-2.17,1.88-62.45,1.24-1.56-2.19,12.82-52.45,8.73-35.57c7.18-33.41,8.43-40.91,12.49-70.26l2.2-2.19c29.65-4.05,35.59-5.3,63.99-10.61l1.87,2.19-4.38,20.29c4.71-4.06,9.38-7.8,14.68-10.61,5.62-3.44,20.59-10.62,35.58-10.62,10.93,0,26.85,3.12,33.41,22.16,10.62-7.8,29.97-22.16,54-22.16,20.62,0,44.32,9.98,44.32,40.9,0,9.37-2.16,19.35-4.66,29.03l-7.51,33.41-13.09,65.56Z" style="fill:#fff;"/><path d="M699.37,334.36l16.5-60.04,4.45-1.21c5.23,6.06,8.47,9.27,16.51,14.5,17.73,10.89,36.67,13.29,47.95,13.29,32.64,0,41.92-17.31,41.92-27.8,0-14.91-13.31-22.16-32.22-33.04l-13.3-7.65c-20.95-12.1-50.37-29.83-50.37-71.74,0-33.04,16.12-54.79,22.95-62.05,24.59-27.39,59.65-34.24,89.08-34.24,44.31,0,72.93,14.5,87.81,21.75l2.03,2.82-16.92,60.44-4.03,1.2c-4.83-4.82-9.67-9.26-14.91-12.89-14.91-10.47-34.26-14.51-44.74-14.51-19.73,0-32.62,10.89-32.62,24.59,0,12.08,8.85,20.54,34.65,34.25l8.06,4.42c18.92,10.48,54.8,30.63,54.8,74.15,0,57.62-45.16,100.32-123.29,100.32-21.38,0-42.75-2.82-63.69-9.27-13.69-4.42-19.73-7.64-29.4-13.29l-1.21-4.02Z" style="fill:#fff;"/><path d="M1082.15,321.61c-24.34,37.78-66.18,38.71-80.54,38.71-46.53,0-74.93-23.09-74.93-69.62,0-24.98,9.06-55.25,25.91-75.55,22.17-25.91,51.51-29.66,72.12-29.66s37.15,5,44.34,9.05c30.88,16.25,30.88,51.83,30.88,59.32,0,11.24-.92,22.17-3.43,32.78-3.43,13.74-9.06,26.84-14.36,34.96ZM1037.52,244.5c0-12.18-5.01-19.98-14.69-19.98-12.17,0-18.4,13.12-19.98,15.93-7.8,14.98-13.41,46.2-13.41,59,0,5.31,0,21.54,14.66,21.54,16.23,0,24.98-21.85,29.97-47.77,3.13-14.98,3.45-27.16,3.45-28.72Z" style="fill:#fff;"/><path d="M1243.49,306.32c-6.25,22.49-6.85,26.54-10.93,44.64l-2.48,2.19c-11.56,3.74-22.49,6.88-38.41,6.88-52.43,0-78.04-31.22-78.04-76.8s32.46-97.72,98.96-97.72c29.03,0,41.84,8.11,49.64,12.81l.63,2.49-12.17,42.15-3.14.31c-7.5-9.37-15.91-14.69-27.77-14.69-21.24,0-41.2,19.67-41.2,52.76,0,17.48,8.41,34.66,31.83,34.66,14.99,0,23.72-6.25,29.98-10.94l3.11,1.25Z" style="fill:#fff;"/><path d="M405.16,321.61c-24.36,37.78-66.19,38.71-80.55,38.71-46.51,0-74.92-23.09-74.92-69.62,0-24.98,9.06-55.25,25.92-75.55,22.18-25.91,51.5-29.66,72.12-29.66s37.15,5,44.32,9.05c30.91,16.25,30.91,51.83,30.91,59.32,0,11.24-.94,22.17-3.43,32.78-3.43,13.74-9.06,26.84-14.36,34.96ZM360.52,244.5c0-12.18-4.99-19.98-14.68-19.98-12.17,0-18.4,13.12-19.97,15.93-7.8,14.98-13.42,46.2-13.42,59,0,5.31,0,21.54,14.66,21.54,16.26,0,24.98-21.85,29.98-47.77,3.12-14.98,3.43-27.16,3.43-28.72Z" style="fill:#fff;"/><path d="M339.6,1.3c-.65,29.9-1.07,59.8-1.07,89.7,0,31.42.42,41.39,1.51,61.31l-1.3,1.3c-17.99,0-22.31,0-38.56.64l-1.09-1.29c.87-22.53,1.31-35.75,1.31-61.31,0-55.24-.66-66.3-1.96-89.7l.86-1.3c15.6.23,20.59.23,39.23-.64l1.07,1.3Z" style="fill:#fff;"/><path d="M462.87,125.88l-1.5,26.42-1.75,1.3h-95.34l-1.07-.86c.65-22.75,1.07-36.4,1.07-63.7,0-58.06-.42-66.08-1.71-87.1l1.28-1.3h95.12l1.07.87-1.5,25.13-1.09,1.3c-26.21-.65-31.2-.65-55.68-.65v34.44l52.42-.86,1.09,1.3-1.29,24.48-1.53,1.3h-50.68l.44,37.92c27.74,0,33.79-.22,59.36-1.52l1.29,1.52Z" style="fill:#fff;"/><path d="M580.31,125.88l-1.52,26.42-1.72,1.3h-95.33l-1.09-.86c.65-22.75,1.09-36.4,1.09-63.7,0-58.06-.44-66.08-1.76-87.1l1.32-1.3h95.13l1.07.87-1.53,25.13-1.07,1.3c-26.21-.65-31.2-.65-55.66-.65v34.44l52.4-.86,1.11,1.3-1.31,24.48-1.51,1.3h-50.69l.42,37.92c27.73,0,33.79-.22,59.36-1.52l1.3,1.52Z" style="fill:#fff;"/><path d="M697.73,125.88l-1.53,26.42-1.71,1.3h-95.35l-1.07-.86c.65-22.75,1.07-36.4,1.07-63.7,0-58.06-.42-66.08-1.71-87.1l1.29-1.3h95.11l1.11.87-1.54,25.13-1.08,1.3c-26.22-.65-31.2-.65-55.7-.65v34.44l52.44-.86,1.08,1.3-1.29,24.48-1.52,1.3h-50.72l.45,37.92c27.73,0,33.8-.22,59.36-1.52l1.3,1.52Z" style="fill:#fff;"/><path d="M1292.24,230.07c-8.24,0-15.81-6.46-15.81-15.81s7.26-15.9,15.81-15.9c9.22,0,15.94,7.26,15.9,15.94-.04,8.77-6.95,15.77-15.9,15.77ZM1292.33,199.78c-8.15,0-14.47,6.5-14.47,14.47s6.5,14.39,14.43,14.39,14.39-6.37,14.43-14.34c.04-7.93-6.15-14.52-14.39-14.52ZM1292.06,204.1c2.05,0,3.43.04,4.68.49,2.14.76,3.21,2.72,3.21,4.63,0,2.54-1.56,4.1-4.14,4.77,1.65.71,2.45,1.47,2.89,4.19.45,3.03.62,4.14,1.56,5.92h-4.1c-.18-.31-.53-1.02-.85-2.76-.04-.45-.36-2.63-.49-3.07-.49-2.85-1.87-3.07-4.45-3.12h-1.25v8.95h-3.56v-20h6.5ZM1289.16,212.3h2.94c1.38,0,4.28.04,4.28-2.81,0-.71-.31-1.83-1.43-2.36-.71-.27-1.16-.27-3.52-.27h-2.27v5.43Z" style="fill:#fff;"/></g></svg>